<svg width="2400" height="2400" viewBox="0 0 2400 2400" fill="none" xmlns="http://www.w3.org/2000/svg">
<path d="M682.975 1935.76C682.975 1805.12 812.699 1690.05 898.165 1679.37C1091.99 1644.27 1131.67 1785.28 1131.67 1915.92C1131.67 2046.57 1042.16 2183 931.74 2183C821.323 2183 682.975 2066.41 682.975 1935.76Z" fill="#E6BFB7"/>
<path d="M955.799 1788.65C955.799 1613.27 1064.74 1471.1 1199.12 1471.1C1333.5 1471.1 1442.44 1613.27 1442.44 1788.65C1442.44 1964.02 1333.5 2106.19 1199.12 2106.19C1064.74 2106.19 955.799 1964.02 955.799 1788.65Z" fill="#E6BFB7"/>
<path d="M1337.5 2059.5C1327.89 1987.82 1297.36 1860.8 1327.23 1751.04C1337.29 1724.42 1393.81 1531.46 1433.5 1698C1458.75 1763.48 1466.28 1972.87 1448.13 2026.25C1466.24 2029.39 1501.73 2043.05 1489.08 2106.47C1448.13 2128.5 1346.02 2134.46 1337.5 2059.5Z" fill="#ECDAD5"/>
<path d="M1067.81 2064.54C1077.42 1992.86 1102.96 1877.09 1073.1 1767.33C1063.04 1740.7 1032.6 1558.93 975.5 1659.5C940.868 1720.5 934.038 1989.15 952.192 2042.53C934.086 2045.67 898.595 2059.33 911.239 2122.76C931.984 2179.72 1059.29 2139.51 1067.81 2064.54Z" fill="#ECDAD5"/>
<path d="M562.091 156.674C590.151 94.0533 641.367 33.5828 715.289 116.156C951.811 439.65 1106.27 813.153 1114.73 953.44C1117.51 1253.27 884.644 1335.07 726.425 1315.48C679.629 1307.56 462.486 1185.65 437.57 933.389C430.062 857.373 429.579 737.484 562.091 156.674Z" fill="#E6BFB7"/>
<path d="M568.564 150.22C593.984 93.2879 640.384 38.3111 707.362 113.389C921.669 407.516 1061.63 747.107 1069.3 874.654C1071.83 1147.26 860.854 1221.62 717.504 1203.8C675.106 1196.59 478.367 1085.75 455.781 856.395C448.975 787.281 448.533 678.28 568.564 150.22Z" fill="#ECDAD5"/>
<path d="M593.66 915.906C564.531 814.407 598.163 344.711 700.348 381.646C814.674 472.908 993 803.004 993 915.906C993 1028.81 901.822 1087.65 824.845 1087.65C747.869 1087.65 642.147 1059.89 593.66 915.906Z" fill="#F0CEC7"/>
<path d="M622.337 889.57C597.795 803.021 626.131 402.505 712.227 434C808.552 511.821 920 755.5 947.5 853C961.607 903.017 998 972 871.5 1033.5C815.5 1091.5 663.19 1012.34 622.337 889.57Z" fill="#F4EBED"/>
<path d="M1820.98 129.245C1792.92 66.6247 1741.71 6.15418 1667.79 88.7276C1431.26 412.221 1276.8 785.724 1268.35 926.011C1265.56 1225.84 1498.43 1307.64 1656.65 1288.05C1703.45 1280.13 1920.59 1158.23 1945.51 905.961C1953.01 829.944 1953.5 710.056 1820.98 129.245Z" fill="#E6BFB7"/>
<path d="M1813.45 118.47C1788.03 61.5374 1741.63 6.56067 1674.65 81.6387C1460.34 375.766 1320.38 715.356 1312.71 842.904C1310.18 1115.51 1521.16 1189.87 1664.51 1172.05C1706.9 1164.84 1903.64 1054 1926.23 824.644C1933.04 755.531 1933.48 646.53 1813.45 118.47Z" fill="#ECDAD5"/>
<path d="M1778.34 916.324C1807.47 814.825 1773.84 345.129 1671.65 382.064C1557.33 473.326 1379 803.422 1379 916.324C1379 1029.23 1470.18 1088.07 1547.16 1088.07C1624.13 1088.07 1729.85 1060.31 1778.34 916.324Z" fill="#F0CEC7"/>
<path d="M1749.66 889.988C1774.2 803.439 1745.87 402.923 1659.77 434.418C1563.45 512.239 1452 755.918 1424.5 853.418C1410.39 903.435 1374 972.418 1500.5 1033.92C1556.5 1091.92 1708.81 1012.76 1749.66 889.988Z" fill="#F4EBED"/>
<path d="M989.5 1609C989.5 1690.47 1103.87 1779.44 1124.5 1797.5C1206.5 1850.5 1221.5 1853 1285 1806.5C1340.5 1756.5 1416.19 1694 1416.19 1585.53C1399.5 1405 996.5 1425.5 989.5 1609Z" fill="#2D19D2"/>
<path d="M1028 1572.07C990.116 1648.83 1123.63 1730.48 1142 1745C1222.5 1796 1225.5 1797.5 1291.5 1745C1347.93 1690.43 1431.61 1646.76 1411.58 1562.83C1339.81 1424.19 1059 1450.72 1028 1572.07Z" fill="#4A36EF"/>
<path d="M1206.07 1470.5C1109.57 1470.98 1018.5 1459.63 998 1578.5C1051.5 1600.2 1118.42 1624.5 1199.35 1624.5C1287.43 1624.5 1358.69 1597.18 1413 1572C1397 1459.12 1293.27 1470.07 1206.07 1470.5Z" fill="#2D19D2"/>
<path fill-rule="evenodd" clip-rule="evenodd" d="M1258.55 1648.52C1261.56 1648.52 1264.34 1650.14 1265.75 1652.77C1267.1 1655.29 1267.04 1658.26 1265.6 1660.73L1265.55 1660.81L1252.91 1681.86C1251.48 1684.24 1248.9 1685.73 1246.14 1685.76L1246.05 1685.76L1231.61 1685.76L1237.61 1699.43L1237.64 1699.47L1237.67 1699.54C1239.09 1702.08 1239.05 1705.1 1237.59 1707.61L1237.54 1707.69L1224.89 1728.74C1223.46 1731.12 1220.88 1732.61 1218.12 1732.64L1218.03 1732.64L1200.31 1732.64L1187.58 1746.01L1187.55 1746.04C1186.35 1747.25 1184.73 1747.93 1183.04 1747.93C1182.62 1747.93 1182.2 1747.88 1181.78 1747.8C1179.72 1747.38 1178.01 1745.97 1177.19 1744.03L1177.16 1743.98L1170.46 1728.66L1170.43 1728.6L1170.39 1728.54C1170.38 1728.53 1170.38 1728.52 1170.37 1728.51C1168.96 1725.96 1168.99 1722.94 1170.46 1720.44L1170.51 1720.35L1182.77 1699.94L1173.73 1679.35L1173.9 1679.26L1173.9 1679.25C1173.51 1677.36 1173.82 1675.38 1174.8 1673.65L1174.86 1673.56L1174.91 1673.47L1187.55 1652.42C1188.98 1650.04 1191.56 1648.55 1194.32 1648.52H1194.41H1258.55ZM1192.17 1732.48L1178.74 1732.48L1182.68 1741.56L1182.69 1741.59C1182.76 1741.75 1182.86 1741.84 1183.02 1741.87C1183.16 1741.9 1183.27 1741.87 1183.38 1741.77L1183.4 1741.75L1192.17 1732.48ZM1230.57 1701.25H1189.97C1189.92 1701.25 1189.88 1701.25 1189.83 1701.25L1189.82 1701.25L1200.95 1726.6H1218.03C1218.73 1726.6 1219.41 1726.23 1219.8 1725.63L1219.83 1725.58L1232.49 1704.51C1232.86 1703.88 1232.91 1703.16 1232.61 1702.5C1232.26 1701.74 1231.46 1701.25 1230.57 1701.25ZM1185.74 1706.45L1175.7 1723.31C1175.3 1723.98 1175.27 1724.77 1175.63 1725.46L1175.67 1725.53L1175.69 1725.56L1175.73 1725.63L1175.81 1725.75L1175.9 1725.86L1175.99 1725.96L1176 1725.98L1176.06 1726.04L1176.11 1726.08C1176.43 1726.37 1176.82 1726.54 1177.25 1726.59L1177.34 1726.6L1177.4 1726.6L1177.47 1726.6H1194.52L1185.74 1706.45ZM1183.1 1685.8L1187.52 1695.87L1187.6 1695.84C1188.36 1695.59 1189.16 1695.45 1189.97 1695.44L1190.09 1695.44L1229.45 1695.44L1225.22 1685.8L1183.1 1685.8ZM1258.44 1654.4H1217.69L1228.83 1679.75H1245.9C1246.61 1679.75 1247.28 1679.38 1247.67 1678.78L1247.7 1678.73L1260.36 1657.67C1260.74 1657.04 1260.78 1656.31 1260.48 1655.65C1260.14 1654.91 1259.37 1654.42 1258.5 1654.4L1258.44 1654.4ZM1211.45 1654.4H1194.47C1193.78 1654.4 1193.1 1654.77 1192.72 1655.37L1192.69 1655.42L1180.06 1676.49C1179.68 1677.12 1179.64 1677.85 1179.94 1678.5C1180.28 1679.24 1181.05 1679.73 1181.91 1679.75L1181.97 1679.75H1222.56L1211.45 1654.4Z" fill="white"/>
<path d="M754 1230.12C754 1036.54 952.851 911.5 1198.14 911.5C1443.44 911.5 1640.15 1035.27 1642.3 1230.12C1645.3 1503 1443.44 1581.71 1198.14 1581.71C952.851 1581.71 754 1523 754 1230.12Z" fill="#F0CEC7"/>
<path d="M758.795 1197.83C785.295 1020.5 966.496 904.5 1206.94 904.5C1447.38 904.5 1608.79 1014.5 1639.79 1197.83C1683.59 1456.82 1447.38 1517.13 1206.94 1517.13C966.496 1517.13 718.864 1465.03 758.795 1197.83Z" fill="#ECDAD5"/>
<path d="M956.295 1423.5C956.295 1335.96 1065.99 1265 1201.29 1265C1336.61 1265 1446.3 1335.96 1446.3 1423.5C1446.3 1511.04 1336.61 1582 1201.29 1582C1065.99 1582 956.295 1511.04 956.295 1423.5Z" fill="#E6BFB7"/>
<path d="M960.295 1404.85C960.295 1322.86 1067.99 1256.39 1200.83 1256.39C1333.68 1256.39 1441.37 1322.86 1441.37 1404.85C1441.37 1486.84 1338.51 1558.34 1205.67 1558.34C1072.82 1558.34 960.295 1486.84 960.295 1404.85Z" fill="#F4EBED"/>
<path d="M1118.3 1399C1170.78 1449.4 1238.3 1450.5 1283.8 1399" stroke="#2E2B24" stroke-width="10" stroke-miterlimit="10" stroke-linecap="round" stroke-linejoin="round"/>
<path d="M1165.2 1337C1172.7 1347.5 1177.2 1357 1201.03 1362.21C1223.7 1358.5 1231.7 1346.5 1238.2 1337C1244.2 1324 1235.7 1315.68 1201.03 1315.68C1166.36 1315.68 1159.2 1322.45 1165.2 1337Z" fill="#2E2B24"/>
<path d="M992.295 1290.51C992.295 1271.45 1004.61 1256 1019.8 1256C1034.99 1256 1047.3 1271.45 1047.3 1290.51C1047.3 1309.55 1034.99 1325 1019.8 1325C1004.61 1325 992.295 1309.55 992.295 1290.51Z" fill="#2E2B24"/>
<path d="M1350.3 1290.51C1350.3 1271.45 1362.61 1256 1377.8 1256C1392.99 1256 1405.3 1271.45 1405.3 1290.51C1405.3 1309.55 1392.99 1325 1377.8 1325C1362.61 1325 1350.3 1309.55 1350.3 1290.51Z" fill="#2E2B24"/>
<path d="M1382.48 1283.19C1382.48 1279.77 1384.89 1277 1387.86 1277C1390.84 1277 1393.24 1279.77 1393.24 1283.19C1393.24 1286.61 1390.84 1289.38 1387.86 1289.38C1384.89 1289.38 1382.48 1286.61 1382.48 1283.19Z" fill="#FFFEFD"/>
<path d="M1024.3 1283.7C1024.3 1280.28 1026.71 1277.51 1029.69 1277.51C1032.66 1277.51 1035.07 1280.28 1035.07 1283.7C1035.07 1287.12 1032.66 1289.89 1029.69 1289.89C1026.71 1289.89 1024.3 1287.12 1024.3 1283.7Z" fill="#FFFEFD"/>
<path d="M965.199 1773.98C847.516 1765.3 719.594 1784.5 719.594 1988.41C719.594 2090.88 809.638 2185.61 979.092 2225.9C1089.5 2252.15 1192.65 2288.99 1445.5 2201.5C1578 2155.65 1543.22 2142.47 1429.64 2106.95C1224.46 2074.63 1254.79 1795.34 965.199 1773.98Z" fill="#E6BFB7"/>
<path d="M975.5 1760C886 1760 748 1775.19 758.307 1925C758.307 2012.93 869.86 2127.14 1025.12 2161.72C1128.45 2183.36 1207.83 2227.08 1439.5 2152C1502 2126 1477.43 2121.89 1429.62 2106.94C1222 2049.5 1223.5 1792 975.5 1760Z" fill="#ECDAD5"/>
</svg>
